# xmcd
#
# Track frame offsets: 
#        150
#        20124
#        40837
#        61077
#        79731
#        93791
#        116548
#        141921
#        157964
#        175013
#
# Disc length: 2533 seconds
#
# Revision: 0
# Processed by: cddbd v1.5.2PL0 Copyright (c) Steve Scherf et al.
# Submitted via: ExactAudioCopyFreeDBPlugin 1.0
#
DISCID=7409e30a
DTITLE=John Cougar - America Fol
DYEAR=1982
DGENRE=Country
TTITLE0=Hurts So Good
TTITLE1=Hurts So Good
TTITLE2=Jack and Diane
TTITLE3=Hand To Hold On To
TTITLE4=Danger List
TTITLE5=Can You Take It
TTITLE6=Thundering Hearts
TTITLE7=China Girl
TTITLE8=Close Enough
TTITLE9=Weakest Moments
EXTD=
EXTT0=
EXTT1=
EXTT2=
EXTT3=
EXTT4=
EXTT5=
EXTT6=
EXTT7=
EXTT8=
EXTT9=
PLAYORDER=
